<?xml version="1.0" encoding="utf-8"?>
<!-- Generator: Adobe Illustrator 22.1.0, SVG Export Plug-In . SVG Version: 6.00 Build 0)  -->
<svg version="1.1" id="Layer_1" xmlns="http://www.w3.org/2000/svg" xmlns:xlink="http://www.w3.org/1999/xlink" x="0px" y="0px"
	 viewBox="0 0 512 512" style="enable-background:new 0 0 512 512;" xml:space="preserve">
<style type="text/css">
	.st0{fill:#EEEEEE;}
	.st1{fill:#FFFFFF;}
	.st2{fill:#FF3E00;}
</style>
<rect class="st0" width="512" height="512"/>
<rect x="4" y="4" class="st1" width="504" height="504"/>
<g>
	<path class="st2" d="M400.9,108.9C364,55.7,290.5,40.1,237.6,73.7l-93.2,59.6c-25.4,15.9-43,42-48.1,71.5
		c-4.4,24.7-0.7,50.2,11.2,72.2c-8.1,12.2-13.6,25.8-15.9,40c-5.4,30.2,1.7,61.3,19.3,86.1c37.3,53.2,110.5,68.8,163.4,35.2
		l93.2-59.3c25.4-15.9,43-42,48.1-71.5c4.4-24.7,0.7-50.2-11.2-72.2c8.1-12.2,13.6-25.8,15.9-40C426,164.8,418.9,133.7,400.9,108.9"
		/>
	<path class="st1" d="M228.4,408.2c-30.2,7.8-61.7-4.1-79.3-29.5c-10.8-14.9-14.9-33.6-11.9-51.9c0.7-3.1,1.4-5.8,2-8.8l1.7-5.4
		l4.7,3.4c11.2,8.1,23.4,14.2,36.6,18.3l3.4,1l-0.3,3.4c-0.3,4.7,1,9.8,3.7,13.9c5.4,7.8,14.9,11.5,24.1,9.2c2-0.7,4.1-1.4,5.8-2.4
		l92.9-59.3c4.7-3.1,7.8-7.5,8.8-12.9c1-5.4-0.3-11.2-3.4-15.6c-5.4-7.8-14.9-11.2-24.1-8.8c-2,0.7-4.1,1.4-5.8,2.4l-35.6,22.7
		c-5.8,3.7-12.2,6.4-19,8.1c-30.2,7.8-61.7-4.1-79.3-29.5C143,251.6,138.6,233,142,214.7c3.1-17.6,13.9-33.6,29.1-43l93.2-59.3
		c5.8-3.7,12.2-6.4,19-8.5c30.2-7.8,61.7,4.1,79.3,29.5c10.8,14.9,14.9,33.6,11.9,51.9c-0.7,3.1-1.4,5.8-2.4,8.8l-1.7,5.4l-4.7-3.4
		c-11.2-8.1-23.4-14.2-36.6-18.3l-3.4-1l0.3-3.4c0.3-4.7-1-9.8-3.7-13.9c-5.4-7.8-14.9-11.2-24.1-8.8c-2,0.7-4.1,1.4-5.8,2.4
		l-92.9,59.3c-4.7,3.1-7.8,7.5-8.8,12.9s0.3,11.2,3.4,15.6c5.4,7.8,14.9,11.2,24.1,8.8c2-0.7,4.1-1.4,5.8-2.4l35.6-22.7
		c5.8-3.7,12.2-6.4,19-8.5c30.2-7.8,61.7,4.1,79.3,29.5c10.8,14.9,14.9,33.6,11.9,51.9c-3.1,17.6-13.9,33.6-29.1,43l-93.2,59.3
		C241.7,403.4,235.2,406.1,228.4,408.2"/>
</g>
</svg>
